<svg xmlns="http://www.w3.org/2000/svg" width="91" height="24" viewBox="0 0 91 24">
    <path fill="#EE384E" fill-rule="evenodd" d="M74.944 8.667c-.389 0-.669.278-.669.666V14c0 .909-.426 1.333-1.338 1.333h-6.02v-5c0-2.823-2.185-5-5.018-5h-4.348c-.405 0-1.094.011-1.338.334l-1.338 2c-.258.34-.093 1 .334 1h6.69c.912 0 1.672.758 1.672 1.666v5H49.523c-.39 0-.67.279-.67.667v2c0 .388.28.667.67.667h2.676c0 .908-1.095 2-2.007 2H44.17c-.912 0-1.338-.425-1.338-1.334v-6.666c0-.388-.28-.667-.67-.667h-2.006c-.39 0-.67.279-.67.667v6.666c0 3 1.673 4.667 4.684 4.667h6.02c2.834 0 5.353-2.51 5.353-5.333h10.703c.39 0 .67-.28.67-.667v-.667l.73.926c.244.323.537.408.942.408h4.348c2.834 0 4.683-1.843 4.683-4.667V9.333c0-.388-.28-.666-.669-.666h-2.007zm-4.683 12c-.39 0-.669.278-.669.666v2c0 .389.28.667.67.667h5.351c.39 0 .67-.278.67-.667v-2c0-.388-.28-.666-.67-.666h-5.352zm-12.041 0c-.39 0-.67.278-.67.666v2c0 .389.28.667.67.667h2.341c.39 0 .669-.278.669-.667v-2c0-.388-.28-.666-.669-.666H58.22zM80.296 5.333c-.389 0-.669.279-.669.667v2c0 .388.28.667.67.667h6.02c.912 0 1.338.424 1.338 1.333v4c0 .909-.426 1.333-1.338 1.333h-6.02c-.39 0-.67.279-.67.667v2c0 .388.28.667.67.667h6.02C89.15 18.667 91 16.824 91 14v-4c0-2.824-1.85-4.667-4.683-4.667h-6.02zm-51.846 0L31.828.997C32.157.6 31.874 0 31.357 0h-2.57c-.41 0-.798.182-1.059.496l-5.634 7.17c-.384.463-.267 1 .335 1h7.693c1.915 0 3.345 1.426 3.345 3.334v3.333h-13.38c-.858 0-1.338-.436-1.338-1.333V3.333c0-.388-.28-.666-.669-.666h-2.007c-.39 0-.669.278-.669.666V14c0 3 2.342 4.667 5.352 4.667h15.387c.389 0 .669-.28.669-.667v-6c0-3.823-2.854-6.667-6.69-6.667H28.45zM10.72 2.667c-.389 0-.669.278-.669.666V14c0 .909-.426 1.333-1.338 1.333H1.355c-.389 0-.669.28-.669.667v2c0 .388.28.667.67.667h7.358c3.01 0 4.683-1.667 4.683-4.667V3.333c0-.388-.28-.666-.669-.666h-2.007zm-8.15 9.819L.018 3.333c-.105-.371.282-.666.67-.666h1.778c.355 0 .744.153.84.495l2.744 9.26c.105.369-.132.652-.516.652H3.35c-.363 0-.681-.24-.78-.588z"/>
</svg>
