<svg xmlns="http://www.w3.org/2000/svg" width="135" height="40" viewBox="0 0 135 40">
    <g fill="none" fill-rule="evenodd">
        <rect width="134" height="39" x=".5" y=".5" fill="#FFF" stroke="#E0E0E0" rx="4"/>
        <g fill="#000" fill-rule="nonzero">
            <path d="M24.22 12.57a2.66 2.66 0 0 1-.16.82 1.87 1.87 0 0 1-.41.61 1.72 1.72 0 0 1-.62.39 2.41 2.41 0 0 1-.83.14h-.41v-.82h.41a2.12 2.12 0 0 0 .54-.06.83.83 0 0 0 .38-.21.91.91 0 0 0 .22-.37 2.34 2.34 0 0 0 .07-.57v-2h.81v2.07zm-1-3.47l.59-.6.6.6-.6.6-.59-.6zM25.93 12.77h-.82V8.06h.82zM28.86 7.94a.5.5 0 0 1 1 0 .45.45 0 0 1-.12.32.56.56 0 0 1-.72 0 .45.45 0 0 1-.16-.32zm.9 4.78h-.85v-3.8h.85v3.8zM34.77 10.3a3.2 3.2 0 0 1-.26 1.32 1.93 1.93 0 0 1-.74.87 2.2 2.2 0 0 1-2.22 0 1.91 1.91 0 0 1-.75-.86 3 3 0 0 1-.27-1.3V10a3.2 3.2 0 0 1 .26-1.32 2.09 2.09 0 0 1 .75-.88 2.2 2.2 0 0 1 2.22 0 2 2 0 0 1 .74.86c.19.42.283.879.27 1.34v.3zm-.89-.3a2.27 2.27 0 0 0-.32-1.3 1.05 1.05 0 0 0-.91-.45 1 1 0 0 0-.9.45 2.22 2.22 0 0 0-.34 1.3v.29c-.024.457.091.91.33 1.3.207.302.555.476.92.46a1 1 0 0 0 .9-.45c.237-.394.35-.85.32-1.31V10zM38.24 11.41a.61.61 0 0 0-.24-.52 2.56 2.56 0 0 0-.85-.37 4.21 4.21 0 0 1-1-.42 1.3 1.3 0 0 1-.7-1.14 1.24 1.24 0 0 1 .5-1 2 2 0 0 1 1.31-.4 2.1 2.1 0 0 1 .95.2c.268.122.496.316.66.56.151.24.23.517.23.8h-.88a.82.82 0 0 0-.25-.63 1.05 1.05 0 0 0-.72-.22 1.09 1.09 0 0 0-.67.18.63.63 0 0 0-.24.52.54.54 0 0 0 .26.47 2.9 2.9 0 0 0 .85.37 4 4 0 0 1 1 .4c.216.128.398.306.53.52.115.212.173.45.17.69a1.21 1.21 0 0 1-.49 1 2.14 2.14 0 0 1-1.33.37 2.61 2.61 0 0 1-1-.2 1.83 1.83 0 0 1-.73-.57 1.41 1.41 0 0 1-.25-.84h.89a.82.82 0 0 0 .28.67c.24.174.534.259.83.24.248.02.496-.048.7-.19a.61.61 0 0 0 .19-.49zM45.32 12.77h-.09a2.63 2.63 0 0 1-.49 0 2 2 0 0 1-.43-.15 1.45 1.45 0 0 1-.36-.25 1.3 1.3 0 0 1-.25-.37.8.8 0 0 1-.2.21 1.2 1.2 0 0 1-.27.16 1.4 1.4 0 0 1-.29.09h-.3a1.33 1.33 0 0 1-.49-.09 1.15 1.15 0 0 1-.41-.26 1.2 1.2 0 0 1-.28-.41 1.35 1.35 0 0 1-.11-.55 1.38 1.38 0 0 1 .14-.62 1.8 1.8 0 0 1 .35-.47 2.46 2.46 0 0 1 .52-.34 6.14 6.14 0 0 1 .59-.25l-.07-.31.79-.19.6 2.32a.73.73 0 0 0 .17.34.82.82 0 0 0 .26.2.71.71 0 0 0 .28.09H45.32v.85zm-2-1.62a.59.59 0 0 0 0-.19 1.23 1.23 0 0 0 0-.19c0-.07 0-.15-.07-.23-.07-.08 0-.17-.08-.27a2.64 2.64 0 0 0-.79.38.63.63 0 0 0-.27.52.37.37 0 0 0 .06.21.36.36 0 0 0 .14.16.56.56 0 0 0 .19.09.5.5 0 0 0 .21 0 1 1 0 0 0 .41-.14.53.53 0 0 0 .19-.34h.01z"/>
            <path d="M49.62 11.47l-.11.07-.24.16a.56.56 0 0 0 .1.15l.14.08h.83v.81h-.6a1.48 1.48 0 0 1-.7-.17 1.22 1.22 0 0 1-.48-.5l-.54.24a6.32 6.32 0 0 1-.61.22c-.21.06-.43.11-.65.15a3.71 3.71 0 0 1-.67.06h-1V12h1c.232 0 .463-.023.69-.07a5.65 5.65 0 0 0 .71-.17 4.39 4.39 0 0 0 .67-.23 5.11 5.11 0 0 0 .56-.25l-.33-.1L48 11l-.36-.1-.33-.09-.29-.06a.72.72 0 0 0-.19 0h-.13a.24.24 0 0 0-.11.06.44.44 0 0 0-.08.11.48.48 0 0 0-.08.16l-.75-.23c.04-.127.09-.251.15-.37a1.29 1.29 0 0 1 .22-.3.93.93 0 0 1 .69-.27L47 10l.35.1.43.13.46.16.44.16.39.14.29.11h.15l.11.67zM46.09 8.6l.58-.59.61.6-.6.59-.59-.6z"/>
            <path d="M51.58 12a.13.13 0 0 1 .1 0 .12.12 0 0 1 0 .09v.56a.11.11 0 0 1 0 .1.13.13 0 0 1-.1 0h-1.36a.11.11 0 0 1-.13-.13v-.56a.16.16 0 0 1 0-.09.13.13 0 0 1 .1 0l1.39.03z"/>
            <path d="M52.94 12a.17.17 0 0 1 .1 0 .16.16 0 0 1 0 .09v.56a.13.13 0 0 1 0 .1.17.17 0 0 1-.1 0h-1.37a.11.11 0 0 1-.13-.13v-.56a.16.16 0 0 1 0-.09.13.13 0 0 1 .1 0l1.4.03z"/>
            <path d="M52.83 12h.42a1.3 1.3 0 0 0 .31 0 .67.67 0 0 0 .19-.1.42.42 0 0 0 .09-.16 1.23 1.23 0 0 0 0-.2v-1h.81v.94a.51.51 0 0 0 .13.38.59.59 0 0 0 .41.13h.12a.37.37 0 0 0 .25-.22.58.58 0 0 0 .05-.25v-1h.81v.94a.5.5 0 0 0 .13.39.57.57 0 0 0 .45.15.41.41 0 0 0 .16 0 .29.29 0 0 0 .14-.08.56.56 0 0 0 .1-.15.65.65 0 0 0 0-.22v-1h.81v1a.47.47 0 0 0 .15.37.78.78 0 0 0 .45.11h.32v.81h-.32a2 2 0 0 1-.58-.07 1.07 1.07 0 0 1-.43-.24 1.09 1.09 0 0 1-.39.23 1.21 1.21 0 0 1-.46.08 1.7 1.7 0 0 1-.53-.07 1.06 1.06 0 0 1-.41-.24 1.48 1.48 0 0 1-.38.23 1.31 1.31 0 0 1-.43.08 1.46 1.46 0 0 1-.95-.3 1.59 1.59 0 0 1-1 .3h-.42V12z"/>
            <path d="M60.87 10v.31c.007.09.007.18 0 .27l.06.31v.55a1.5 1.5 0 0 1-.11.58 1.38 1.38 0 0 1-.29.41 1.27 1.27 0 0 1-.41.23 1.16 1.16 0 0 1-.45.08H59V12h1a.47.47 0 0 0 .15-.06.64.64 0 0 0 .13-.15.68.68 0 0 0 0-.27 1.21 1.21 0 0 0 0-.18v-.22-.24-.23c0-.07 0-.14-.05-.2a1.06 1.06 0 0 0 0-.14l.64-.31zm-1.39-1.32l.59-.59.6.6-.6.59-.59-.6zM69.81 10.51v1a.59.59 0 0 0 0 .2.38.38 0 0 0 .09.13.25.25 0 0 0 .12.08.31.31 0 0 0 .12.05h.39v.81h-.44l-.26-.05-.24-.09a.8.8 0 0 1-.21-.15 1.46 1.46 0 0 1-1 .3h-3.7a1.44 1.44 0 0 1-.46-.08 1 1 0 0 1-.38-.24 1 1 0 0 1-.13-.15 1.15 1.15 0 0 1-.22-.48 1.22 1.22 0 0 1 0-.34 1.59 1.59 0 0 1 0-.36c0-.12 0-.24.07-.36s0-.21.08-.29c.08-.08 0-.14 0-.16l.39.13.39.12c0 .06 0 .13-.07.21l-.06.25v.26a1.91 1.91 0 0 0 0 .2.63.63 0 0 0 0 .26.31.31 0 0 0 .11.14.24.24 0 0 0 .13.07H68.41a1 1 0 0 0 .31 0 .35.35 0 0 0 .19-.1.33.33 0 0 0 .07-.24v-1.12h.83zm-3.89-.27l-.55-.55.54-.57.56.57-.55.55zm1.37 0l-.55-.56.54-.56.57.56-.56.56z"/>
            <path d="M71.86 12a.13.13 0 0 1 .1 0 .12.12 0 0 1 0 .09v.56a.11.11 0 0 1 0 .1.13.13 0 0 1-.1 0H70.5a.11.11 0 0 1-.13-.13v-.56a.16.16 0 0 1 0-.09.13.13 0 0 1 .1 0l1.39.03z"/>
            <path d="M73.22 12a.17.17 0 0 1 .1 0 .16.16 0 0 1 0 .09v.56a.13.13 0 0 1 0 .1.17.17 0 0 1-.1 0h-1.37a.11.11 0 0 1-.13-.13v-.56a.16.16 0 0 1 0-.09.13.13 0 0 1 .1 0l1.4.03z"/>
            <path d="M73.12 12.77V12h1.34a3 3 0 0 0 .46 0 1.6 1.6 0 0 0 .3-.08.62.62 0 0 0 .17-.11.47.47 0 0 0 .09-.12c-.26.03-.52.03-.78 0a1.47 1.47 0 0 1-.59-.2 1 1 0 0 1-.37-.4 1.2 1.2 0 0 1-.13-.59 1.27 1.27 0 0 1 .1-.52A1.34 1.34 0 0 1 74 9.5a1.26 1.26 0 0 1 .97-.38c.16.007.319.037.47.09.127.055.245.13.35.22.096.09.177.194.24.31a1.8 1.8 0 0 1 .16.38c.04.141.07.285.09.43.01.15.01.3 0 .45v.25a2 2 0 0 1-.18.75 1.34 1.34 0 0 1-.41.47 1.81 1.81 0 0 1-.57.24c-.221.04-.445.06-.67.06h-1.33zm1.15-4.91l.58-.6.61.61-.6.59-.59-.6zM75 9.93a.86.86 0 0 0-.23 0 .47.47 0 0 0-.2.1.42.42 0 0 0-.13.16.4.4 0 0 0-.05.22.42.42 0 0 0 .3.41c.281.08.579.08.86 0v-.3a1.47 1.47 0 0 0-.08-.3.6.6 0 0 0-.16-.23.59.59 0 0 0-.31-.06zM78.66 12.77a3.79 3.79 0 0 1-.62 0 1.56 1.56 0 0 1-.43-.13.78.78 0 0 1-.28-.22 1.09 1.09 0 0 1-.17-.32 2.21 2.21 0 0 1-.07-.4V8.06h.82v3.09a2.43 2.43 0 0 0 0 .42.44.44 0 0 0 .09.25.45.45 0 0 0 .23.11c.143.013.287.013.43 0v.84z"/>
            <path d="M81 10a.29.29 0 0 1 0 .1v1.34a1.5 1.5 0 0 1-.11.58 1.38 1.38 0 0 1-.29.41 1.27 1.27 0 0 1-.41.23 1.19 1.19 0 0 1-.45.08h-1.22V12h1.55a.47.47 0 0 0 .15-.06 1 1 0 0 0 .13-.15.68.68 0 0 0 .05-.27 1.21 1.21 0 0 0 0-.18v-.22a2 2 0 0 0 0-.24v-.23-.2-.14L81 10zm-1.76 4.52l-.6-.52.54-.56.56.56-.5.52zm1.37 0L80 14l.54-.56.56.56-.49.52zM83.85 12.57a2.66 2.66 0 0 1-.17.82 1.85 1.85 0 0 1-.4.61 1.76 1.76 0 0 1-.63.39 2.37 2.37 0 0 1-.83.14h-.4v-.82h.4c.185.003.37-.018.55-.06a.75.75 0 0 0 .37-.21.91.91 0 0 0 .22-.37 1.93 1.93 0 0 0 .04-.57v-2h.82l.03 2.07zM85.67 12.78h-.49l-.26-.06-.27-.08-.39-.12.23-.78c.193.067.39.124.59.17.19.05.384.084.58.1.156.026.314.026.47 0a.33.33 0 0 0 .26-.19.14.14 0 0 0 0-.11.51.51 0 0 0-.07-.15L85.1 9.79l.68-.45.23.34v.07l.1.15.17.25.26.39.46.46c.105.157.177.334.21.52a1 1 0 0 1-.44.95c-.17.11-.36.186-.56.22a3.13 3.13 0 0 1-.54.09z"/>
        </g>
        <g fill="#000" fill-rule="nonzero">
            <path d="M38.73 28.51l-1.32-2.64a1.41 1.41 0 0 0-1.26-.78H22.3a.57.57 0 0 0-.51.82l.89 1.73a2.78 2.78 0 0 0 2.48 1.5h13.17a.44.44 0 0 0 .4-.63zM31.42 30.52h-2.07a.37.37 0 0 0-.37.36v2c.005.2.17.36.37.36h2.07c.2 0 .365-.16.37-.36v-2a.37.37 0 0 0-.37-.36zM86.51 25.09H71.43a.25.25 0 0 1-.24-.34 6.16 6.16 0 0 0 .35-2.07v-2.07a.47.47 0 0 0-.47-.47h-3.2a.47.47 0 0 0-.47.47v2.1a2.4 2.4 0 0 1-2.4 2.38h-1.39a.25.25 0 0 1-.24-.33 6.16 6.16 0 0 0 .34-2v-2.1a.47.47 0 0 0-.48-.47H60a.48.48 0 0 0-.48.47v2.07a2.39 2.39 0 0 1-2.42 2.38h-9.28a1.41 1.41 0 0 0-1.26.78l-1.32 2.64a.44.44 0 0 0 .4.63h11.48a6.64 6.64 0 0 0 5.1-2.36l.92 1.84a.89.89 0 0 0 .8.49h1a6.61 6.61 0 0 0 5.3-2.62l.94 2.12a.89.89 0 0 0 .81.53h11.66a2.81 2.81 0 0 0 2.49-1.51l.86-1.74a.56.56 0 0 0-.49-.82zM69.38 30.52H63.8a.37.37 0 0 0-.37.36v2c.005.2.17.36.37.36h5.58c.2 0 .365-.16.37-.36v-2a.37.37 0 0 0-.37-.36zM38.67 30.52h-5.58a.37.37 0 0 0-.37.36v2c.005.2.17.36.37.36h5.58c.2 0 .365-.16.37-.36v-2a.37.37 0 0 0-.37-.36zM55.57 30.52h-2.06a.36.36 0 0 0-.37.36v2a.36.36 0 0 0 .37.36h2.06a.36.36 0 0 0 .37-.36v-2a.36.36 0 0 0-.37-.36zM43.71 16.25h-3.43a.36.36 0 0 0-.36.35v12.15a.4.4 0 0 0 .4.39h3.35a.39.39 0 0 0 .39-.39V16.6a.35.35 0 0 0-.35-.35z"/>
        </g>
        <g fill="#000" fill-rule="nonzero">
            <path d="M107 17.83a7 7 0 0 1 1.55 8.39c3.73-6.23 2.32-11.13 2.32-11.13-8.1-4.06-12.65-.6-12.65-.6a13.1 13.1 0 0 1 8.78 3.34z"/>
            <path d="M97.83 19.17a6.9 6.9 0 0 1 8.35-1.56c-6.2-3.75-11.07-2.34-11.07-2.34-4 8.15-.6 12.72-.6 12.72a13.23 13.23 0 0 1 3.32-8.82z"/>
            <path d="M99.27 28.25a7 7 0 0 1-1.56-8.38C94 26.09 95.4 31 95.4 31c8.1 4.06 12.64.6 12.64.6a13.08 13.08 0 0 1-8.77-3.35z"/>
            <path d="M111.8 18.07a13.21 13.21 0 0 1-3.33 8.82 6.89 6.89 0 0 1-8.34 1.56c6.19 3.75 11.07 2.33 11.07 2.33 4.04-8.14.6-12.71.6-12.71zM108.92 6.19c-5.79.11-6.17 5.17-6.17 5.17 5.82.49 6.17-5.17 6.17-5.17z"/>
        </g>
    </g>
</svg>
