<svg xmlns="http://www.w3.org/2000/svg" xmlns:xlink="http://www.w3.org/1999/xlink" width="135" height="40" viewBox="0 0 135 40">
    <defs>
        <linearGradient id="a" x1="50%" x2="50%" y1="0%" y2="100%">
            <stop offset="0%" stop-color="#FFF"/>
            <stop offset="100%"/>
        </linearGradient>
        <linearGradient id="c" x1="48.288%" x2="36.709%" y1="3.599%" y2="100%">
            <stop offset="0%" stop-color="#00C3FF"/>
            <stop offset="100%" stop-color="#06E1FF"/>
        </linearGradient>
        <path id="b" d="M.463.398C.172.705 0 1.183 0 1.803v22.115c0 .62.172 1.097.463 1.405l.073.073 12.39-12.39v-.292L.536.324.463.399z"/>
        <linearGradient id="e" x1="0%" y1="50%" y2="50%">
            <stop offset="0%" stop-color="#FEBD00"/>
            <stop offset="100%" stop-color="#FFDB00"/>
        </linearGradient>
        <path id="d" d="M12.926 12.714v.293l4.129 4.13.095-.051 4.892-2.782c1.398-.793 1.398-2.093 0-2.887l-4.892-2.78-.094-.053-4.13 4.13z"/>
        <linearGradient id="f" x1="86.243%" x2="-50.14%" y1="30.902%" y2="136.007%">
            <stop offset="0%" stop-color="#FF3A44"/>
            <stop offset="100%" stop-color="#C31162"/>
        </linearGradient>
        <linearGradient id="h" x1="8.818%" x2="75.765%" y1="24.433%" y2="79.7%">
            <stop offset="0%" stop-color="#04E975"/>
            <stop offset="100%" stop-color="#00F076"/>
        </linearGradient>
        <path id="g" d="M.463.398L12.926 12.86l4.224-4.225L2.541.336C2.139.108 1.758 0 1.42 0 1.037 0 .707.139.463.398"/>
    </defs>
    <g fill="none" fill-rule="evenodd">
        <rect width="134" height="39" x=".5" y=".5" fill="#FFF" stroke="#E0E0E0" rx="4"/>
        <g transform="translate(10 7)">
            <use fill="url(#a)" xlink:href="#b"/>
            <use fill="url(#c)" xlink:href="#b"/>
        </g>
        <g transform="translate(10 7)">
            <use fill="#FFD200" xlink:href="#d"/>
            <use fill="url(#e)" xlink:href="#d"/>
        </g>
        <path fill="url(#f)" d="M.463 25.323c.24.255.563.393.938.398h.042c.333-.005.705-.113 1.098-.336l14.609-8.3-4.224-4.224L.463 25.323z" transform="translate(10 7)"/>
        <g transform="translate(10 7)">
            <use fill="#00F076" xlink:href="#g"/>
            <use fill="url(#h)" xlink:href="#g"/>
        </g>
        <path fill="#000" d="M105.895 30.234h1.865v-12.5h-1.865v12.5zm16.806-7.998l-2.138 5.42h-.065l-2.219-5.42h-2.01l3.329 7.575-1.898 4.214h1.946l5.131-11.789h-2.076zm-10.583 6.578c-.61 0-1.462-.306-1.462-1.062 0-.964 1.061-1.335 1.978-1.335.819 0 1.206.178 1.704.418a2.26 2.26 0 0 1-2.22 1.98zm.226-6.852c-1.351 0-2.75.596-3.329 1.914l1.656.692c.355-.692 1.014-.917 1.705-.917.965 0 1.947.58 1.962 1.608v.13c-.338-.194-1.061-.483-1.946-.483-1.785 0-3.603.981-3.603 2.814 0 1.673 1.464 2.751 3.105 2.751 1.254 0 1.946-.563 2.38-1.223h.064v.965h1.802V25.42c0-2.219-1.657-3.458-3.796-3.458zm-11.531 1.796h-2.655v-4.285h2.655c1.394 0 2.186 1.154 2.186 2.142 0 .97-.792 2.143-2.186 2.143zm-.049-6.026h-4.471v12.502h1.865v-4.736h2.606c2.068 0 4.102-1.497 4.102-3.883 0-2.385-2.034-3.883-4.102-3.883zM76.383 28.816c-1.289 0-2.368-1.079-2.368-2.56 0-1.5 1.079-2.595 2.368-2.595 1.273 0 2.272 1.095 2.272 2.594 0 1.482-.999 2.561-2.272 2.561zm2.143-5.88h-.065c-.419-.499-1.224-.95-2.239-.95-2.127 0-4.076 1.87-4.076 4.27 0 2.383 1.949 4.236 4.076 4.236 1.015 0 1.82-.45 2.239-.967h.065v.612c0 1.628-.87 2.497-2.272 2.497-1.143 0-1.852-.82-2.142-1.514l-1.627.677c.466 1.127 1.707 2.513 3.769 2.513 2.192 0 4.044-1.289 4.044-4.43v-7.637h-1.772v.693zm3.061 7.298h1.868v-12.5h-1.868v12.5zm4.623-4.124c-.048-1.644 1.274-2.48 2.224-2.48.741 0 1.369.37 1.579.901l-3.803 1.58zm5.8-1.418c-.354-.95-1.434-2.707-3.641-2.707-2.191 0-4.011 1.724-4.011 4.254 0 2.384 1.804 4.253 4.22 4.253 1.95 0 3.078-1.192 3.545-1.885l-1.45-.967c-.483.71-1.143 1.176-2.095 1.176-.95 0-1.627-.435-2.061-1.289l5.686-2.352-.193-.483zm-45.308-1.4v1.803h4.318c-.129 1.015-.467 1.756-.983 2.271-.629.63-1.611 1.322-3.335 1.322-2.658 0-4.736-2.143-4.736-4.8 0-2.659 2.078-4.803 4.736-4.803 1.434 0 2.481.564 3.254 1.29l1.273-1.273c-1.079-1.03-2.513-1.82-4.527-1.82-3.641 0-6.702 2.964-6.702 6.605 0 3.64 3.061 6.605 6.702 6.605 1.965 0 3.448-.645 4.607-1.853 1.193-1.192 1.563-2.867 1.563-4.22 0-.419-.032-.806-.096-1.128h-6.074zm11.079 5.524c-1.289 0-2.401-1.063-2.401-2.577 0-1.53 1.112-2.578 2.401-2.578 1.289 0 2.4 1.047 2.4 2.578 0 1.514-1.111 2.577-2.4 2.577zm0-6.83c-2.352 0-4.269 1.788-4.269 4.253 0 2.45 1.917 4.253 4.269 4.253 2.352 0 4.269-1.804 4.269-4.253 0-2.465-1.917-4.254-4.269-4.254zm9.313 6.83c-1.289 0-2.4-1.063-2.4-2.577 0-1.53 1.111-2.578 2.4-2.578s2.4 1.047 2.4 2.578c0 1.514-1.111 2.577-2.4 2.577zm0-6.83c-2.352 0-4.269 1.788-4.269 4.253 0 2.45 1.917 4.253 4.269 4.253 2.353 0 4.27-1.804 4.27-4.253 0-2.465-1.917-4.254-4.27-4.254z"/>
        <path fill="#000" fill-rule="nonzero" d="M124.257 10.503c.183.205.317.41.401.616.085.205.127.403.127.594 0 .36-.128.664-.385.913-.257.25-.634.374-1.133.374h-2.662l-.055-1.1h2.552c.33 0 .495-.125.495-.374 0-.1-.038-.197-.113-.292l-1.768-2.007.803-.748 1.738 2.024zm-7.194 3.817h.132c.279 0 .517-.042.715-.127.198-.084.361-.194.49-.33a1.24 1.24 0 0 0 .28-.473c.059-.18.088-.364.088-.555v-2.761h1.012v2.761c0 .36-.062.697-.187 1.012a2.616 2.616 0 0 1-.506.82 2.358 2.358 0 0 1-.764.55 2.263 2.263 0 0 1-.952.203h-.253l-.055-1.1zm-1.1-1.32h-2.376c-.03 0-.055-.03-.077-.088a1.261 1.261 0 0 1-.032-.33l-.001-.11c0-.257.011-.416.033-.479.022-.062.048-.093.077-.093h2.299c.447 0 .671-.216.671-.649v-1.177h1.012v1.254c0 .55-.14.966-.418 1.248-.279.283-.675.424-1.188.424zm.33 2.112h-1.023v-.979h1.023v.979zm-1.441 0h-1.034v-.979h1.034v.979zM113.587 13h-.429c-.19 0-.37-.026-.539-.077a1.114 1.114 0 0 1-.445-.258 1.292 1.292 0 0 1-.309-.473 2 2 0 0 1-.115-.732V6.895h1.023v4.323c0 .213.048.38.143.5.095.122.246.182.451.182h.22V13zm-7.303-.418l-.001-.11c0-.257.011-.416.033-.479.022-.062.048-.093.077-.093h.902c.11 0 .205.002.286.005l.117.007.109.01a2.25 2.25 0 0 1 .424.077 2.754 2.754 0 0 1-.562-.314 1.19 1.19 0 0 1-.319-.351 1.179 1.179 0 0 1-.143-.418 3.473 3.473 0 0 1-.033-.501 1.628 1.628 0 0 1 .418-1.078c.14-.154.312-.28.517-.38.205-.099.447-.148.726-.148.257 0 .491.033.704.099.213.066.396.176.55.33.154.154.273.357.358.61.084.254.126.563.126.93v.506c0 .535-.154.955-.462 1.26-.308.304-.796.456-1.463.456h-2.255c-.03 0-.055-.03-.077-.088a1.261 1.261 0 0 1-.032-.33zm2.529-2.673c-.242 0-.42.075-.534.225a.78.78 0 0 0-.17.479c0 .088.011.174.033.258a.59.59 0 0 0 .165.259c.088.088.22.181.396.28.176.1.414.211.715.336a.64.64 0 0 0 .132-.27c.03-.113.044-.229.044-.346v-.264c0-.279-.055-.508-.165-.688-.11-.18-.315-.269-.616-.269zm.583-1.925h-1.122V6.972h1.122v1.012zm-5.632 3.916c.447 0 .671-.216.671-.649v-1.177h1.023v1.177c0 .235.073.401.22.5a.902.902 0 0 0 .517.149h.198V13h-.242c-.242 0-.47-.04-.682-.121-.213-.08-.396-.25-.55-.506-.161.257-.34.425-.534.506-.194.08-.401.121-.621.121h-3.366a1.78 1.78 0 0 1-.71-.127 1.299 1.299 0 0 1-.472-.335 1.356 1.356 0 0 1-.27-.49 1.954 1.954 0 0 1-.088-.588v-1.43h1.012v1.166c0 .22.05.392.148.517.1.125.3.187.6.187h3.146zm-.374-2.64h-1.045v-.979h1.045v.979zm-1.43 0h-1.045v-.979h1.045v.979zm-6.402-2.365h1.023V13h-1.023V6.895zm-1.012 5.94c0 .36-.062.697-.187 1.012a2.616 2.616 0 0 1-.506.82 2.358 2.358 0 0 1-.764.55 2.263 2.263 0 0 1-.952.203h-.627l-.055-1.1h.429c.293 0 .544-.042.754-.127.209-.084.379-.194.511-.33.132-.135.23-.293.291-.473.063-.18.094-.364.094-.555v-2.761h1.012v2.761zm.011-3.927h-1.122V7.896h1.122v1.012z"/>
    </g>
</svg>
